<svg viewBox="0 0 507.9 507.9" xmlns="http://www.w3.org/2000/svg" fill="none">
  <path
    d="M422.2 260.7c-9.6 1.2-15.7-5.1-16.6-11.8-6.2-40.8-42.1-71.6-83.3-71.6-14.6 0-29.1 3.9-41.8 11.2-7 3.7-15.3 2-19.3-5.4-17.7-31.6-51.1-51.3-87.3-51.3-59.2 4-101.3 46.1-98.4 116.7 1.1 6.7-2.7 13.3-9.1 15.6-22.8 8.2-38.1 30-38.1 54.1 0 31.8 25.8 57.6 57.6 57.6h336.3c31.8 0 57.6-25.8 57.6-57.6S453.9 260.7 422.2 260.7z"
    fill="#b8d4d9"
  />
  <path
    d="M422.9 289c-.7 0-1.4.1-2.1.1l-37.5 1.2-5.7-37.1c-4.2-27.1-28-47.6-55.4-47.6-9.8 0-19.2 2.5-27.8 7.4l-37.1 21.2-20.9-37.3c-12.7-22.7-36.7-36.8-62.6-36.8-22.6 0-42.7 10.5-55.9 26.9h76.4c7.8 0 14.1 6.3 14.1 14.1s-6.3 14.1-14.1 14.1h-90c-.1 0-.2 0-.3 0-3.6 14.5-1.7 24-1 28.2h63c7.8 0 14.1 6.3 14.1 14.1 0 7.8-6.3 14.1-14.1 14.1h-58.2l1.2 7.2-33.3 12c-11.6 4.2-19.4 15.3-19.4 27.6 0 16.2 13.2 29.4 29.4 29.4H422c16.2 0 29.4-13.2 29.4-29.4 0-16.4-12.8-29.4-28.5-29.8Z"
    fill="#b8d4d9"
  />
  <path
    d="M431 233c-12.8-49.2-56.9-83.9-108.8-83.9-15 0-29.9 3-43.7 8.9-23.9-33.8-62.9-54.3-104.7-54.3-70.7 0-128.2 57.5-128.2 128.2 0 3.4.2 6.9.5 10.5C18.1 257 0 286.3 0 318.4c0 47.3 38.5 85.8 85.8 85.8h336.3c47.3 0 85.8-38.5 85.8-85.8C508 274 474.2 237.4 431 233zM422.2 376H85.8c-31.8 0-58.6-26.8-57.6-57.6 0-24.1 15.3-45.9 38.1-54.1 6.4-2.3 10.3-8.9 9.1-15.6-2.9-70.8 39.2-112.8 98.4-116.9 36.1 0 69.6 19.6 87.3 51.3 4 7.3 12.3 9.1 19.3 5.4 12.8-7.3 27.2-11.2 41.8-11.2 41.3 0 77.1 30.8 83.3 71.6.9 6.7 7.1 13.1 16.6 11.8 31.8 0 57.6 25.8 57.6 57.6S453.9 376 422.2 376z"
    fill="#9ac0c7"
  />
</svg>

