<svg viewBox="0 0 363.579 363.579" xmlns="http://www.w3.org/2000/svg" fill="none">
  <ellipse cx="192.5" cy="160.193" rx="145.746" ry="110" fill="#e4cf7d" />
  <circle cx="46.754" cy="160.193" r="25.333" fill="#e4cf7d" />
  <circle cx="338.246" cy="160.193" r="25.333" fill="#e4cf7d" />

  <path
    d="M252.5 180.887c0 22.79-6.35 44.09-17.37 62.24-4.4 7.22-9.53 13.94-15.3 20.05-21.88 23.22-52.91 37.71-87.33 37.71s-65.45-14.49-87.33-37.71c-5.77-6.11-10.9-12.83-15.3-20.05-11.02-18.15-17.37-39.45-17.37-62.24"
    fill="#f6ebba"
  />

  <rect x="120" y="180.887" width="25" height="118.91" fill="#e4cf7d" />

  <path
    d="M127.47 180.887 120 188.357l-74.83 74.82c-5.77-6.11-10.9-12.83-15.3-20.05l62.24-62.24h35.36Z"
    fill="#e4cf7d"
  />

  <path
    d="M235.13 243.127c-4.4 7.22-9.53 13.94-15.3 20.05L145 188.357l-7.47-7.47h35.36l62.24 62.24Z"
    fill="#e4cf7d"
  />

  <path
    d="M132.5 313.387c-36.347 0-71.494-15.176-96.428-41.638-6.353-6.727-12.034-14.172-16.876-22.117C6.634 228.943 0 205.178 0 180.887h25c0 19.714 5.379 38.993 15.555 55.753 3.924 6.438 8.538 12.485 13.703 17.955 20.537 21.795 48.32 33.792 78.242 33.792s57.705-11.998 78.232-33.782c5.175-5.479 9.789-11.526 13.724-17.982C234.621 219.88 240 200.601 240 180.887h25c0 24.291-6.634 48.056-19.186 68.728-4.853 7.963-10.534 15.408-16.896 22.145C203.994 298.211 168.847 313.387 132.5 313.387Z"
    fill="#d8c067"
  />

  <circle cx="127.47" cy="96.377" r="11.044" fill="#f6ebba" />
  <circle cx="156.54" cy="84.334" r="11.044" fill="#f6ebba" />
  <circle cx="101.79" cy="113.29" r="11.044" fill="#f6ebba" />
</svg>